<svg width="30" height="30" viewBox="0 0 30 30" fill="none" xmlns="http://www.w3.org/2000/svg">
<path d="M8.75 27.5H21.25C21.5508 27.5 21.8415 27.3916 22.0688 27.1946C22.2961 26.9976 22.4448 26.7252 22.4875 26.4275L24.8338 10H26.25V7.5H24.5225L22.3675 3.19125C22.2638 2.98365 22.1043 2.80903 21.9069 2.68694C21.7095 2.56485 21.4821 2.50012 21.25 2.5H8.75C8.27625 2.5 7.84375 2.7675 7.63125 3.19125L5.4775 7.5H3.75V10H5.16625L7.5125 26.4275C7.55521 26.7252 7.70386 26.9976 7.93117 27.1946C8.15848 27.3916 8.4492 27.5 8.75 27.5ZM21.7725 13.75H8.2275L7.69125 10H22.3075L21.7725 13.75ZM9.83375 25L9.2975 21.25H20.7013L20.165 25H9.83375ZM9.5225 5H20.4775L21.7275 7.5H8.2725L9.5225 5Z" fill="#F2F2F2" fill-opacity="0.7"/>
</svg>
